PathFileType	4	(X/Y/Z)	OpenSim_Sub07_CSStiffKnee_Accel.trc
DataRate	CameraRate	NumFrames	NumMarkers	Units	OrigDataRate	OrigDataStartFrame	OrigNumFrames
100	100	20	8	m	100	4209	6734
Frame#	Time	torso_imu_offset_imu	pelvis_imu_offset_imu	tibia_r_imu_offset_imu	femur_r_imu_offset_imu	tibia_l_imu_offset_imu	femur_l_imu_offset_imu	toes_r_imu_offset_imu	toes_l_imu_offset_imu
				X1	Y1	Z1	X2	Y2	Z2	X3	Y3	Z3	X4	Y4	Z4	X5	Y5	Z5	X6	Y6	Z6	X7	Y7	Z7	X8		Y8	Z8	

4209	42.08000000	-8.03612127	0.36827576	6.35494270	8.83503164	-0.21517468	3.21154357	2.70637885	7.69433868	-0.80151414	9.48642650	-2.98259637	2.75550552	9.52760116	-1.75926334	-0.29027602	9.38880924	0.34949773	-2.71578682	1.53866573	-1.72308066	7.66827997	5.39845844	1.67139833	10.80471888
4210	42.09000000	-7.79361294	0.27054178	6.22226668	8.67017066	0.03568827	3.11712719	2.93333002	6.30800042	-0.45779134	9.50953811	-3.01299753	2.71569949	9.66834389	-1.49381408	0.11448056	8.94709788	0.97641486	-2.37723963	2.11323784	-1.80268869	7.26936650	5.49943669	1.47271810	10.83276283
4211	42.10000000	-7.66730080	0.17749107	6.26686786	8.56845089	0.28169472	3.06069363	2.76021701	3.71036285	-0.27020516	9.43301526	-2.98907159	2.78170146	9.66558706	-1.12245721	0.48911497	8.98469914	1.67415404	-2.04504314	2.00208945	-1.65653849	6.60353364	4.64641174	1.49446238	10.98011407
4212	42.11000000	-7.70420588	0.01328592	6.32039646	8.57528753	0.41813379	2.99986651	2.80707817	1.90036613	-0.79077663	9.12705019	-2.78066183	2.92364584	9.59499540	-0.58303235	0.50537138	8.96096864	2.32292985	-1.60631084	1.48249464	-1.46893375	6.03691534	5.21584207	1.54550299	10.84928229
4213	42.12000000	-7.75572544	-0.09553482	6.41797471	8.55333336	0.40229369	2.92803670	3.42210280	2.29400553	-1.31895115	8.64491579	-2.53951133	2.87047807	9.74221125	-0.12640766	0.35636105	9.02591010	2.86786609	-1.32471240	1.62942821	-1.50477747	6.07197357	5.44585343	1.41746034	10.89306859
4214	42.13000000	-7.78685139	-0.11258393	6.45178990	8.59698641	0.33144119	2.82428061	4.04730507	3.27060384	-1.34427772	8.10744521	-2.36255885	2.57794213	9.80131447	-0.36372631	0.31930153	8.99251877	3.12207813	-1.27239157	3.13530523	-1.20773686	6.86037039	5.40276042	1.39162259	10.74951897
4215	42.14000000	-7.74715985	-0.12465967	6.41434078	8.71366392	0.15606454	2.76176748	4.24378106	4.08677893	-1.28467928	7.70952660	-2.14508103	2.13267115	9.71007384	-0.66950297	0.19956643	8.87512646	3.10681317	-1.23766843	4.88099865	-0.50063874	7.85842322	4.75623175	1.40957739	11.02287949
4216	42.15000000	-7.79432126	-0.13867511	6.47938767	8.85235722	-0.08301700	2.73966870	4.81919112	4.56055355	-1.06869210	7.49713081	-1.94880237	1.64783696	9.66434188	-0.71405416	0.02404040	8.76958283	3.14957643	-1.30910647	6.06218710	0.41799465	8.32218297	5.12676278	1.55433998	11.01740257
4217	42.16000000	-7.90583045	-0.10910097	6.54981573	9.13027688	0.03285031	2.81269337	5.75548468	4.19913836	-0.55816297	7.45415827	-1.69792386	1.25489730	9.58060112	-0.19978081	0.21606137	8.79185948	2.80848705	-1.25965841	6.47464012	1.11769564	8.20709148	5.36259119	1.45565422	10.80498188
4218	42.17000000	-8.07503398	-0.15581834	6.53941224	9.20527748	-0.22570112	2.81648305	6.02292969	4.15739920	-0.47090268	7.69812080	-1.25253207	0.91180018	9.83745552	0.25381852	0.23065517	9.03690838	2.64474142	-1.36811331	6.75695834	1.45828880	7.94177224	5.29639394	1.35667726	10.74526508
4219	42.18000000	-8.25438927	-0.24108588	6.65384190	9.29944502	-0.16651812	2.84543649	6.95651895	4.18613487	-1.03317033	8.00612514	-0.84574755	0.77651990	10.03543403	0.55569052	0.22911712	8.96986389	2.79766846	-1.42553265	7.06010478	1.35949998	7.83338055	5.01646136	1.35783410	11.13815678
4220	42.19000000	-8.33500015	-0.24424194	6.69386198	9.26647056	-0.15285540	2.87740303	7.04783761	4.17019681	-1.82198351	8.27612960	-0.54583253	0.81515776	9.99773630	0.25041790	0.13287431	9.01140815	2.63255451	-1.54777423	7.79996359	0.96108036	7.87853698	5.00134304	1.43121747	11.17257252
4221	42.20000000	-8.36837323	-0.27662417	6.64429878	9.24236911	-0.30165797	2.81668706	6.70963187	4.75675935	-1.91540860	8.52756458	-0.06533501	1.07647757	9.82323660	-0.20444586	0.23357508	9.07365104	2.61901717	-1.64432520	8.89456640	0.59951260	7.96158084	5.30050976	1.39067621	10.98557207
4222	42.21000000	-8.49709538	-0.26885302	6.89385992	9.16946330	-0.28521845	2.80269764	6.80817259	5.74989035	-1.88246543	8.64035174	0.38303221	1.32888244	9.97864188	-0.42569283	-0.24662516	8.99081302	2.53316621	-1.67018196	9.92842286	0.30731196	8.15071369	5.47025169	1.29600458	10.76149107
4223	42.22000000	-8.56802826	-0.24859544	6.75337268	9.02469007	-0.29962709	2.71284374	7.94114271	6.94893807	-2.10813443	8.68300322	0.52077179	1.36167209	10.03606837	-0.79926036	-0.26905245	8.97940173	2.71203089	-1.91775354	10.82988937	0.16969301	8.23177826	5.48426476	1.28691578	10.89600025
4224	42.23000000	-8.55164298	-0.31873474	6.74181769	8.93595960	-0.32186756	2.60873976	8.79294926	7.22746858	-3.58682596	8.80265864	0.22611038	1.25941147	10.05831600	-1.15778996	-0.18077030	8.92604263	2.23244694	-1.89132076	11.07891000	2.61764184	7.91545313	4.97013278	1.39514535	11.08958220
4225	42.24000000	-8.48356842	-0.28494342	6.77479661	8.76684963	-0.33399899	2.52553315	9.31646547	6.75811348	-5.32048740	8.60816777	-0.51318836	1.34430738	9.94723784	-1.13552433	-0.01853743	9.12024885	2.27396830	-2.03732895	12.16244446	6.24593349	7.99018848	5.32843560	1.36238075	10.94472949
4226	42.25000000	-8.31598526	-0.20675098	6.61907207	8.64466268	-0.30899957	2.40841412	10.12871750	7.28127446	-3.73473030	7.81519232	-1.96012853	1.76943097	9.93085749	-0.76224497	0.15739288	9.35827973	1.97416285	-2.12231967	15.52930782	5.92928563	8.64572289	5.49882316	1.16039317	10.90177271
4227	42.26000000	-8.24702064	-0.16619373	6.38120489	8.65953613	-0.27136699	2.17374944	10.77273954	7.87461523	-3.72023587	7.22869559	-3.38806335	2.17293156	10.00338597	-0.44706686	0.27273878	9.24091909	1.84656576	-2.21494182	18.40745206	4.24028846	8.67165966	5.48754882	1.01124483	10.91518861
4228	42.27000000	-8.28706111	-0.21683319	6.23506818	8.77423104	-0.27037405	2.12672858	10.67589593	7.82957693	-3.21875525	6.94528630	-4.61874366	2.05907858	9.87603919	-0.62487730	0.23242779	8.99072514	1.87793586	-2.16321596	18.49150741	2.62824052	7.73289170	4.88841169	1.15962189	11.21614827
